<svg xmlns="http://www.w3.org/2000/svg" xmlns:xlink="http://www.w3.org/1999/xlink" width="500" zoomAndPan="magnify" viewBox="0 0 375 374.999991" height="500" preserveAspectRatio="xMidYMid meet" version="1.0"><defs><clipPath id="8f071762c8"><path d="M 42.757812 94.109375 L 332.257812 94.109375 L 332.257812 259 L 42.757812 259 Z M 42.757812 94.109375 " clip-rule="nonzero"/></clipPath></defs><g clip-path="url(#8f071762c8)"><path fill="#ffffff" d="M 288.859375 147.453125 C 283.164062 147.453125 277.722656 148.558594 272.75 150.570312 C 268.664062 135.042969 254.558594 123.589844 237.777344 123.589844 C 234.683594 123.589844 231.683594 123.988281 228.828125 124.710938 C 222.371094 106.882812 205.320312 94.160156 185.300781 94.160156 C 163.007812 94.160156 144.398438 109.960938 140.003906 131 C 134.980469 128.609375 129.355469 127.265625 123.40625 127.265625 C 102.394531 127.265625 85.304688 144.011719 84.636719 164.90625 C 81.671875 164 78.507812 163.527344 75.253906 163.527344 C 57.316406 163.527344 42.757812 178.097656 42.757812 196.089844 C 42.757812 214.085938 57.316406 228.652344 75.253906 228.652344 C 82.46875 228.652344 89.140625 226.296875 94.527344 222.3125 C 100.820312 238.183594 116.28125 249.421875 134.363281 249.421875 C 146.191406 249.421875 156.875 244.617188 164.632812 236.878906 C 175.464844 250.363281 192.066406 258.988281 210.671875 258.988281 C 233.851562 258.988281 253.890625 245.613281 263.582031 226.152344 C 270.707031 231.28125 279.421875 234.308594 288.859375 234.308594 C 312.800781 234.308594 332.203125 214.863281 332.203125 190.871094 C 332.203125 166.878906 312.800781 147.4375 288.859375 147.4375 Z M 288.859375 147.453125 " fill-opacity="1" fill-rule="nonzero"/></g></svg>